<svg fill="none" height="36" width="36" xmlns="http://www.w3.org/2000/svg"><linearGradient id="a" gradientUnits="userSpaceOnUse" x1="8.661" x2="16.168" y1="20.277" y2="-.24"><stop offset="0" stop-color="#2aa41c"/><stop offset="1" stop-color="#18d503"/></linearGradient><circle cx="18" cy="18" fill="#2aa41c" r="18"/><circle cx="18" cy="18" fill="url(#a)" r="18"/><g fill="#fff"><path d="M21.333 7.667h-1.448a2 2 0 00-3.772 0h-1.446a.667.667 0 00-.667.666V11c0 .368.299.667.667.667h6.666A.667.667 0 0022 11V8.333a.667.667 0 00-.667-.666z"/><path clip-rule="evenodd" d="M24.667 9h-1.334v2c0 1.103-.897 2-2 2h-6.666c-1.103 0-2-.897-2-2V9h-1.334C10.6 9 10 9.599 10 10.333v16c0 .748.585 1.334 1.333 1.334h13.334c.748 0 1.333-.586 1.333-1.334v-16C26 9.585 25.415 9 24.667 9zm-6.862 11.805l-2.666 2.667a.67.67 0 01-.944 0L12.86 22.14a.667.667 0 01.943-.943l.863.861 2.194-2.194a.667.667 0 01.944.942zM15.14 18.14l2.666-2.667a.667.667 0 00-.944-.943l-2.194 2.195-.863-.861a.667.667 0 00-.943.942l1.334 1.334a.67.67 0 00.944 0zm7.528 4.194H20A.667.667 0 0120 21h2.667a.667.667 0 010 1.333zM20 17h2.667a.667.667 0 000-1.333H20A.667.667 0 0020 17z" fill-rule="evenodd"/></g></svg>