<svg width="36" height="36" fill="none" xmlns="http://www.w3.org/2000/svg"><circle cx="18" cy="18" r="18" fill="#2AA41C"/><circle cx="18" cy="18" r="18" fill="url(#paint0_linear)"/><path fill-rule="evenodd" clip-rule="evenodd" d="M26.128 19.386a5.003 5.003 0 11-2.261 9.747 5.003 5.003 0 012.26-9.747zm-.936 1.894a.743.743 0 00-.742.742v2.361c0 .395.32.716.716.716h2.36a.743.743 0 000-1.485h-1.591v-1.592a.743.743 0 00-.743-.742z" fill="#fff"/><path fill-rule="evenodd" clip-rule="evenodd" d="M18.19 24.934h-7.9A1.29 1.29 0 019 23.645V11.38c0-.713.578-1.29 1.29-1.29h14.2c.713 0 1.29.577 1.29 1.29v6.32c-6.885-.611-7.84 5.465-7.59 7.235zm-.554-12.446a1.345 1.345 0 100 2.69 1.345 1.345 0 000-2.69zm-1.345 5.338a1.345 1.345 0 112.69 0 1.345 1.345 0 01-2.69 0zm-3.081-5.338a1.345 1.345 0 100 2.69 1.345 1.345 0 000-2.69zm-1.346 5.338a1.345 1.345 0 112.691 0 1.345 1.345 0 01-2.69 0zm10.199-5.338a1.345 1.345 0 100 2.69 1.345 1.345 0 000-2.69z" fill="#fff"/><rect x="11.659" y="8" width="2.344" height="3.645" rx="1.172" fill="#fff"/><rect x="20.891" y="8" width="2.344" height="3.645" rx="1.172" fill="#fff"/><defs><linearGradient id="paint0_linear" x1="8.661" y1="20.277" x2="16.168" y2="-.24" gradientUnits="userSpaceOnUse"><stop stop-color="#2AA41C"/><stop offset="1" stop-color="#18D503"/></linearGradient></defs></svg>