<svg width="36" height="36" fill="none" xmlns="http://www.w3.org/2000/svg"><circle cx="18" cy="18" r="18" fill="#2AA41C"/><circle cx="18" cy="18" r="18" fill="url(#paint0_linear)"/><path fill-rule="evenodd" clip-rule="evenodd" d="M9.659 18.753a2.034 2.034 0 00-1.317.881 2.042 2.042 0 00.52 2.799l6.325 4.512h6.352l2.883-5.426-.104-.106-.015-.011-.023-.03c-.068-.075-.766-.787-2.613-.787-1.798 0-2.41.751-2.473.834l-.16.28h-3.321a.771.771 0 00-.708.457.752.752 0 00-.07.32l.001.038a.778.778 0 00.658.73.74.74 0 00.119.01h3.618l-3.618 1.233 3.618-1.233h.816v1.233h-4.434a2.012 2.012 0 01-1.831-2.84c.086-.189.2-.363.338-.515l-3.01-2.06a2.033 2.033 0 00-1.551-.32zm5.345 3.661l.016-.023.005.033-.021-.01z" fill="#fff"/><path d="M26.016 21.146L29 22.704l-3.625 6.944-3.035-1.583 3.676-6.919z" fill="#fff"/><path fill-rule="evenodd" clip-rule="evenodd" d="M21.726 7c1.363 0 2.616.545 3.529 1.536.902.979 1.4 2.316 1.4 3.765 0 1.492-.557 2.858-1.75 4.298-.111.134-.248.304-.402.495-.554.686-1.324 1.642-1.872 2.147a3.788 3.788 0 01-.331-.04c-.807-.121-2.468-.368-4.262 1.161-.657 0-2.79-.091-2.79-.091s-2.16-1.337-2.41-1.565c-.802-.727-1.505-1.42-2.074-2.107-1.194-1.44-1.75-2.806-1.75-4.298 0-1.45.497-2.786 1.4-3.765A4.743 4.743 0 0113.941 7c1.018 0 1.95.322 2.771.957.415.32.79.712 1.121 1.17a5.67 5.67 0 011.12-1.17A4.438 4.438 0 0121.727 7zm-2.637 6.738c.533.345 1.357.033 1.84-.698.485-.73.445-1.604-.087-1.95-.533-.345-1.357-.033-1.841.698-.484.73-.445 1.604.088 1.95zM18.2 11.74c-.098.857-.686 1.49-1.314 1.416-.628-.075-1.058-.83-.96-1.686.098-.857.687-1.49 1.315-1.416.628.075 1.058.83.96 1.686zm-.133 6.5c.573.227 1.25.02 1.613-1.041.52-2.266-2.99-3.63-4.76-2.12a1.409 1.409 0 00-.39.49c-.33 1.072.103 1.617.7 1.771.308.08.592.077.85.073.242-.003.462-.006.662.06l.02-.005c.2.066.378.195.573.337.208.153.435.32.732.436zm2.946-4.216c.56-.515 1.316-.607 1.69-.206.372.401.22 1.144-.34 1.66-.56.514-1.316.607-1.69.206-.372-.402-.22-1.145.34-1.66zm-5.578-1.795c-.176-.74-.752-1.24-1.285-1.115-.534.124-.823.825-.647 1.565.177.74.752 1.24 1.286 1.115.533-.124.823-.824.646-1.565z" fill="#fff"/><defs><linearGradient id="paint0_linear" x1="8.661" y1="20.277" x2="16.168" y2="-.24" gradientUnits="userSpaceOnUse"><stop stop-color="#2AA41C"/><stop offset="1" stop-color="#18D503"/></linearGradient></defs></svg>