<svg width="50" height="49" fill="none" xmlns="http://www.w3.org/2000/svg"><path d="M25.006 0h-.012C11.209 0 0 10.988 0 24.5c0 5.36 1.762 10.327 4.76 14.36l-3.116 9.102 9.61-3.01C15.205 47.517 19.921 49 25.005 49 38.791 49 50 38.009 50 24.5S38.79 0 25.006 0zm14.547 34.597c-.603 1.67-2.997 3.053-4.906 3.458-1.306.272-3.013.49-8.756-1.844-7.347-2.983-12.078-10.3-12.447-10.774-.353-.475-2.969-3.874-2.969-7.39 0-3.515 1.822-5.227 2.556-5.962.603-.604 1.6-.88 2.556-.88.31 0 .588.016.838.028.734.03 1.103.074 1.587 1.21.604 1.424 2.072 4.94 2.247 5.301.178.361.357.852.107 1.326-.235.49-.441.708-.81 1.124-.369.417-.719.735-1.087 1.182-.338.39-.719.806-.294 1.525.425.705 1.894 3.054 4.056 4.94 2.79 2.435 5.053 3.213 5.863 3.543.603.245 1.322.187 1.762-.272.56-.591 1.25-1.571 1.953-2.536.5-.692 1.132-.778 1.794-.533.675.23 4.247 1.96 4.981 2.319.735.361 1.22.533 1.397.836.175.303.175 1.727-.428 3.4z" fill="#2AA41C"/></svg>