<svg width="36" height="36" fill="none" xmlns="http://www.w3.org/2000/svg"><circle cx="18" cy="18" r="18" fill="#2AA41C"/><circle cx="18" cy="18" r="18" fill="url(#paint0_linear)"/><g clip-path="url(#clip0)" fill="#fff"><path d="M27.297 8.85C24.382 7.622 21.422 7 18.5 7c-2.922 0-5.882.622-8.797 1.85a.674.674 0 00-.412.62v7.616c0 2.82.853 5.533 2.466 7.846a13.654 13.654 0 006.51 5.027c.15.055.316.055.466 0a13.655 13.655 0 006.51-5.027 13.654 13.654 0 002.466-7.846V9.47a.674.674 0 00-.412-.621zm-2.283 8.236c0 2.071-.588 4.1-1.7 5.865a11.036 11.036 0 01-4.52 4.056.674.674 0 01-.588 0 11.036 11.036 0 01-4.52-4.056 10.995 10.995 0 01-1.7-5.865v-5.75c0-.29.187-.549.464-.64 2.021-.664 4.057-1 6.05-1 1.993 0 4.029.336 6.05 1 .277.091.464.35.464.64v5.75z"/><path d="M13.334 11.83v5.256c0 3.57 2.017 6.894 5.166 8.56 3.149-1.666 5.166-4.99 5.166-8.56V11.83a17.875 17.875 0 00-5.166-.788c-1.699 0-3.434.265-5.166.788zm8.343 4.15a.674.674 0 010 .953l-3.812 3.811a.674.674 0 01-.953 0l-1.588-1.588a.674.674 0 01.952-.953l1.112 1.112 3.335-3.335a.674.674 0 01.954 0z"/></g><defs><linearGradient id="paint0_linear" x1="8.661" y1="20.277" x2="16.168" y2="-.24" gradientUnits="userSpaceOnUse"><stop stop-color="#2AA41C"/><stop offset="1" stop-color="#18D503"/></linearGradient><clipPath id="clip0"><path fill="#fff" transform="translate(7 7)" d="M0 0h23v23H0z"/></clipPath></defs></svg>