<svg fill="none" height="36" width="36" xmlns="http://www.w3.org/2000/svg"><linearGradient id="a" gradientUnits="userSpaceOnUse" x1="8.661" x2="16.168" y1="20.277" y2="-.24"><stop offset="0" stop-color="#2aa41c"/><stop offset="1" stop-color="#18d503"/></linearGradient><circle cx="18" cy="18" fill="#2aa41c" r="18"/><circle cx="18" cy="18" fill="url(#a)" r="18"/><g fill="#fff"><path d="M26.755 22.319l-.844-2.568h-3.628c-.591.67-1.891 2.04-2.986 3.182a2.422 2.422 0 01-3.536-.042c-1.058-1.155-2.303-2.522-2.836-3.14H9.101A66626.546 66626.546 0 017 26.148h21.013l-1.258-3.829z"/><path clip-rule="evenodd" d="M18.642 20.538a1.419 1.419 0 01-2.183 0c-1.768-2.082-5.063-6.368-5.063-9.387C11.396 7.626 14.025 5 17.55 5c3.527 0 6.154 2.626 6.154 6.151 0 3.02-3.295 7.305-5.063 9.387zm1.181-9.689a2.345 2.345 0 00-2.34-2.34 2.345 2.345 0 00-2.342 2.34 2.345 2.345 0 002.341 2.34 2.345 2.345 0 002.341-2.34z" fill-rule="evenodd"/></g></svg>