<svg width="36" height="36" fill="none" xmlns="http://www.w3.org/2000/svg"><circle cx="18" cy="18" r="18" fill="#2AA41C"/><circle cx="18" cy="18" r="18" fill="url(#paint0_linear)"/><path d="M21.927 12.928c-1.882 0-3.662-.327-5.01-.923a6.113 6.113 0 01-1.064-.591v1.332c0 .505.592 1.068 1.583 1.506 1.19.524 2.784.813 4.491.813 1.707 0 3.302-.289 4.49-.813.992-.438 1.584-1 1.584-1.507v-1.331c-.304.215-.66.413-1.063.591-1.35.596-3.129.923-5.011.923zm0 12.415c1.707 0 3.302-.289 4.49-.813.992-.438 1.584-1 1.584-1.507v-1.331c-.304.215-.66.413-1.063.591-1.35.595-3.129.923-5.011.923-.765 0-1.509-.053-2.22-.159a7.462 7.462 0 01-.359 2.058c.807.156 1.685.238 2.579.238z" fill="#fff"/><path d="M17.825 17.835c1.136.423 2.585.656 4.102.656 1.707 0 3.302-.288 4.49-.813.992-.438 1.584-1 1.584-1.506V14.84c-.304.215-.66.413-1.063.591-1.35.596-3.129.924-5.011.924-1.882 0-3.662-.328-5.01-.924a6.126 6.126 0 01-1.064-.591v1.407c.744.416 1.41.954 1.972 1.588zm4.102 4.082c1.707 0 3.302-.289 4.49-.813.992-.438 1.584-1 1.584-1.507v-1.332a6.11 6.11 0 01-1.063.592c-1.35.595-3.129.923-5.011.923-1.042 0-2.06-.103-2.99-.296a7.44 7.44 0 01.697 2.246c.727.124 1.496.187 2.293.187zm-4.491-11.091c1.19.524 2.784.813 4.491.813 1.707 0 3.302-.288 4.49-.813.992-.438 1.584-1 1.584-1.506s-.592-1.07-1.583-1.507C25.228 7.29 23.634 7 21.927 7c-1.707 0-3.302.289-4.49.813-.992.438-1.584 1-1.584 1.507 0 .505.592 1.069 1.583 1.506zm.986 11.975a6.218 6.218 0 00-6.211-6.21A6.218 6.218 0 006 22.8a6.218 6.218 0 006.21 6.211 6.218 6.218 0 006.212-6.21z" fill="#fff"/><path d="M12.943 24.205h-1.11v.545h1.995v.87h-1.994v.99h-1.226v-.99h-.67v-.87h.67v-.545h-.67v-1.197h.67v-3.325h2.335c.59 0 1.088.224 1.493.673.412.448.617.99.617 1.623s-.202 1.164-.608 1.593a2 2 0 01-1.502.633zm-1.11-3.246v2.049h1.11c.25 0 .459-.099.626-.297.173-.198.26-.442.26-.732s-.087-.531-.26-.723a.786.786 0 00-.626-.297h-1.11z" fill="#2AA41C"/><defs><linearGradient id="paint0_linear" x1="8.661" y1="20.277" x2="16.168" y2="-.24" gradientUnits="userSpaceOnUse"><stop stop-color="#2AA41C"/><stop offset="1" stop-color="#18D503"/></linearGradient></defs></svg>