<svg width="97" height="82" viewBox="0 0 97 82" fill="none" xmlns="http://www.w3.org/2000/svg">
<path fill-rule="evenodd" clip-rule="evenodd" d="M79.0794 37.9445V37.9505C79.1768 38.4834 79.3185 39.6794 79.3155 39.7824C79.3155 41.6748 78.5658 43.3886 77.3557 44.6331C76.1368 45.8837 74.4485 46.686 72.5831 46.6588C72.1738 46.6524 71.2848 46.5125 70.5338 46.3943L70.5335 46.3942C70.2178 46.3445 69.9264 46.2987 69.7054 46.2682C69.3689 46.2228 68.817 46.3439 68.5809 46.5952C68.0611 47.1511 67.2548 48.2263 66.6286 49.0613C66.3339 49.4544 66.079 49.7942 65.9127 50.0016C65.0804 51.0402 64.2156 52.0152 63.3331 52.9205C60.6974 55.6184 58.6373 57.2747 55.9484 58.6282C53.3452 59.7606 50.7863 59.7212 48.7733 59.1732C46.9345 58.6827 45.0131 58.1013 43.0474 57.4321C41.9937 57.0748 40.9253 56.6903 39.848 56.2815C36.9053 55.1673 28.9215 52.0243 27.3483 50.4376C26.519 49.7715 25.7988 48.9449 25.2321 47.9881C25.2291 47.985 25.2262 47.979 25.2262 47.9759C24.9369 47.4339 24.6713 46.8526 24.4263 46.2349C24.4263 46.2334 24.4256 46.2311 24.4249 46.2288C24.4241 46.2266 24.4234 46.2243 24.4234 46.2228C23.5114 43.9125 22.9181 41.1117 22.7145 38.0141C22.6594 37.172 22.6591 35.7244 22.6588 34.2407C22.6584 32.6996 22.658 31.1196 22.5964 30.1385C22.5639 29.6056 22.257 29.1302 21.7906 28.891C21.4719 28.7275 21.1324 28.5579 20.9908 28.4943C19.8899 28.0159 18.9395 27.2438 18.2341 26.2779C17.3929 25.1303 16.897 23.7072 16.897 22.166C16.897 20.0434 17.8386 18.1479 19.3173 16.8853C19.3999 16.8179 19.4837 16.7517 19.568 16.6851L19.5683 16.6849L19.5685 16.6847L19.5688 16.6845L19.569 16.6843C19.6168 16.6465 19.6648 16.6086 19.7128 16.5704C19.7171 16.5659 19.7214 16.5631 19.7269 16.5596L19.7334 16.5552C23.6383 13.5122 29.0041 10.5297 35.2377 7.40184C44.0952 2.95988 50.5885 0.734361 50.5974 0.731333C52.7047 0.0591349 55.6326 -0.258797 57.737 0.252922C60.6295 1.20672 61.9666 2.28163 63.6873 4.34061C65.4139 6.34207 68.5396 11.8135 70.9126 16.8611C74.8351 25.206 78.1202 32.7243 79.0794 37.9445ZM56.9638 16.8577C56.1197 17.4815 55.3198 18.2718 54.6173 19.2074C51.84 22.9166 51.6481 27.5312 54.1894 29.5175C54.3428 29.6356 54.5022 29.7446 54.6675 29.8384C56.8988 31.1283 60.1691 30.2169 62.7015 27.6886C63.0941 27.295 63.466 26.865 63.8172 26.3987C64.2511 25.8174 64.62 25.2178 64.927 24.6092C66.5886 21.3148 66.3909 17.7631 64.2481 16.0886C63.1472 15.2287 61.7157 15.0047 60.2193 15.3256C59.3958 15.5012 58.5546 15.8434 57.74 16.3369C57.4773 16.4944 57.2176 16.667 56.9638 16.8577ZM38.3308 17.6118C38.384 15.5014 38.9477 13.5817 39.8361 12.1192C40.9223 10.3327 42.4925 9.2245 44.2162 9.26992C45.1872 9.29414 46.0933 9.68474 46.8755 10.3479C47.7196 11.0624 48.4221 12.098 48.912 13.3455C49.0005 13.5726 49.0861 13.8088 49.1599 14.051C49.523 15.2137 49.7119 16.5248 49.6764 17.9055C49.5643 22.3959 47.1381 26.0143 44.1807 26.2353C44.0509 26.2444 43.921 26.2475 43.7911 26.2444C40.9636 26.1718 38.6968 23.0167 38.3663 18.9562C38.3308 18.5232 38.319 18.0721 38.3308 17.6118ZM27.1181 25.6123C27.4428 26.0937 27.8029 26.5267 28.1866 26.9052C30.0254 28.728 32.4043 29.3336 33.9833 28.2163C35.7454 26.9748 35.8989 24.0287 34.4349 21.3914C34.3139 21.1703 34.1781 20.9493 34.0335 20.7343C32.6079 18.6238 30.4976 17.443 28.7267 17.5822C28.163 17.6246 27.6317 17.8033 27.1683 18.1303C25.5479 19.2748 25.2852 21.8607 26.395 24.3194C26.5928 24.7584 26.8318 25.1914 27.1181 25.6123ZM57.2943 45.012C57.3032 46.2383 57.0316 47.398 56.5476 48.4214C55.4142 50.8104 53.1061 52.4515 50.4321 52.4697C49.8299 52.4727 49.2426 52.394 48.6848 52.2426C47.2031 51.8399 45.9369 50.9588 45.0072 49.7173L44.9951 49.699C44.8661 49.5015 43.7763 47.8328 42.4217 47.3858C41.0231 46.898 39.0015 47.3566 38.716 47.4213C38.7003 47.4249 38.6898 47.4273 38.685 47.4282H38.6821C38.2807 47.5039 37.8704 47.5433 37.4513 47.5463C33.5376 47.5736 30.3411 44.3973 30.3146 40.4459C30.3116 39.919 30.3647 39.4043 30.468 38.9077C31.7018 34.4354 35.7247 32.4885 38.3869 31.5286C40.3261 30.8292 42.2741 30.5779 44.0155 30.6899C44.836 30.7444 45.6122 30.8776 46.3265 31.0926H46.3295C46.8224 31.1956 47.3182 31.3288 47.8141 31.4984C49.1186 31.9374 50.2992 32.5612 51.3293 33.3181C52.4273 34.1236 53.3511 35.0804 54.0683 36.128C55.1161 37.4482 56.0015 39.1015 56.5948 40.9879C56.9962 42.2687 57.2323 43.5434 57.3061 44.7606C57.3042 44.7567 57.3011 44.7541 57.2975 44.7511C57.2955 44.7494 57.2934 44.7476 57.2914 44.7455C57.2914 44.7913 57.2921 44.8363 57.2929 44.881L57.2929 44.8814C57.2936 44.9252 57.2943 44.9686 57.2943 45.012ZM67.5862 39.907C68.4835 39.6103 69.2922 39.1863 69.974 38.6837C71.7626 37.3635 72.6953 35.4832 72.1699 33.836C72.04 33.4303 71.8305 33.0639 71.553 32.7429C70.2898 31.2805 67.6423 30.7839 64.9712 31.668C64.9328 31.6801 64.8974 31.6922 64.862 31.7044C61.6714 32.8035 59.6703 35.4862 60.3845 37.736C60.9719 39.5891 63.215 40.5762 65.7828 40.3006C66.3731 40.237 66.9782 40.1068 67.5862 39.907Z" fill="#2AA41C"/>
<path d="M8.15828 76.5343H4.49461V81.6217H0V68.2318H4.47572V72.7707H8.1394V68.2318H12.6529V81.6217H8.15828V76.5343Z" fill="#2AA41C"/>
<path d="M14.5368 74.8511C14.5368 73.7794 14.7257 72.8149 15.1034 71.9575C15.4811 71.0875 15.9972 70.3499 16.6519 69.7448C17.3192 69.1396 18.1061 68.6731 19.0125 68.3452C19.919 68.0174 20.901 67.8535 21.9586 67.8535C23.0161 67.8535 23.9982 68.0174 24.9046 68.3452C25.8111 68.6731 26.598 69.1396 27.2652 69.7448C27.9325 70.3499 28.455 71.0875 28.8327 71.9575C29.2104 72.8149 29.3992 73.7794 29.3992 74.8511C29.3992 75.9228 29.2104 76.8999 28.8327 77.7825C28.455 78.6651 27.9325 79.4216 27.2652 80.052C26.598 80.6698 25.8111 81.1489 24.9046 81.4893C23.9982 81.8297 23.0161 82 21.9586 82C20.901 82 19.919 81.8297 19.0125 81.4893C18.1061 81.1489 17.3192 80.6698 16.6519 80.052C15.9972 79.4216 15.4811 78.6651 15.1034 77.7825C14.7257 76.8999 14.5368 75.9228 14.5368 74.8511ZM19.3147 74.8511C19.3147 75.2924 19.3776 75.6958 19.5035 76.0615C19.642 76.4271 19.8246 76.7423 20.0512 77.0071C20.2904 77.2719 20.5737 77.4799 20.901 77.6312C21.2284 77.7699 21.5809 77.8392 21.9586 77.8392C22.3363 77.8392 22.6825 77.7699 22.9973 77.6312C23.3246 77.4799 23.6079 77.2719 23.8471 77.0071C24.0863 76.7423 24.2688 76.4271 24.3947 76.0615C24.5332 75.6958 24.6025 75.2924 24.6025 74.8511C24.6025 74.4224 24.5332 74.0316 24.3947 73.6785C24.2688 73.3129 24.0863 73.0103 23.8471 72.7707C23.6079 72.5186 23.3246 72.3231 22.9973 72.1844C22.6825 72.0458 22.3363 71.9764 21.9586 71.9764C21.5809 71.9764 21.2284 72.0458 20.901 72.1844C20.5737 72.3231 20.2904 72.5186 20.0512 72.7707C19.8246 73.0103 19.642 73.3129 19.5035 73.6785C19.3776 74.0316 19.3147 74.4224 19.3147 74.8511Z" fill="#2AA41C"/>
<path d="M35.2813 74.0568L35.489 81.6217H31.2966V68.2318H37.1698L39.5871 75.4374H39.6815L41.7777 68.2318H47.8398V81.6217H43.4773L43.6095 74.0946L43.4962 74.0757L41.0034 81.6217H37.8308L35.3757 74.0568H35.2813Z" fill="#2AA41C"/>
<path d="M50.329 68.2318H59.526V71.9764H54.5593V73.1301H59.2238V76.6289H54.5593V77.8771H59.847V81.6217H50.329V68.2318Z" fill="#2AA41C"/>
<path d="M60.1594 68.2318H65.2394L67.4489 76.5154H67.5245L69.6396 68.2318H74.7196L69.8851 81.6217H64.8995L60.1594 68.2318Z" fill="#2AA41C"/>
<path d="M75.6688 68.2318H84.8657V71.9764H79.899V73.1301H84.5636V76.6289H79.899V77.8771H85.1868V81.6217H75.6688V68.2318Z" fill="#2AA41C"/>
<path d="M93.714 81.6217H89.2194V72.0331H85.9334V68.2318H97V72.0331H93.714V81.6217Z" fill="#2AA41C"/>
</svg>
