<svg width="86" height="83" viewBox="0 0 86 83" fill="none" xmlns="http://www.w3.org/2000/svg">
<path fill-rule="evenodd" clip-rule="evenodd" d="M74.5777 38.1203V38.1264C74.6757 38.6618 74.8182 39.8633 74.8152 39.9668C74.8152 41.868 74.061 43.5897 72.8435 44.84C71.6171 46.0963 69.9185 46.9024 68.0418 46.875C67.63 46.8686 66.7356 46.728 65.98 46.6093L65.9793 46.6092C65.6618 46.5592 65.3688 46.5132 65.1466 46.4826C64.808 46.437 64.2527 46.5587 64.0152 46.8111C63.4922 47.3696 62.681 48.4498 62.051 49.2887L62.0509 49.2887C61.7544 49.6836 61.498 50.025 61.3308 50.2333C60.4934 51.2767 59.6233 52.2562 58.7354 53.1658C56.0837 55.8761 54.011 57.5401 51.3057 58.8998C48.6866 60.0375 46.1121 59.998 44.0869 59.4474C42.2369 58.9546 40.3038 58.3705 38.3261 57.6983C37.266 57.3393 36.191 56.953 35.1071 56.5423C32.1466 55.4229 24.1141 52.2654 22.5313 50.6714C21.6969 50.0021 20.9724 49.1717 20.4022 48.2104C20.3992 48.2074 20.3963 48.2013 20.3963 48.1983C20.1053 47.6538 19.838 47.0697 19.5915 46.4491C19.5915 46.4461 19.5886 46.44 19.5886 46.437C18.671 44.116 18.0741 41.3022 17.8692 38.1903C17.8139 37.3442 17.8135 35.8899 17.8132 34.3994C17.8128 32.8512 17.8125 31.2638 17.7505 30.2781C17.7178 29.7428 17.409 29.2652 16.9398 29.0249C16.6191 28.8606 16.2776 28.6902 16.135 28.6264C15.0274 28.1457 14.0712 27.37 13.3615 26.3997C12.5152 25.2468 12.0164 23.817 12.0164 22.2687C12.0164 20.1363 12.9636 18.232 14.4513 16.9635C14.5348 16.8955 14.6195 16.8287 14.7047 16.7616L14.7052 16.7611C14.7532 16.7233 14.8012 16.6854 14.8493 16.6472C14.8536 16.6427 14.858 16.6399 14.8635 16.6363L14.87 16.632C18.7987 13.5748 24.1972 10.5785 30.4688 7.43614C39.3803 2.9736 45.9131 0.737764 45.9221 0.734722C48.0423 0.0594089 50.988 -0.259996 53.1053 0.254094C56.0154 1.21231 57.3605 2.2922 59.0918 4.36073C60.8289 6.37145 63.9736 11.8683 66.3611 16.9392C70.3075 25.3228 73.6126 32.876 74.5777 38.1203ZM52.3273 16.9358C51.478 17.5625 50.6733 18.3564 49.9665 19.2964C47.1722 23.0228 46.9792 27.6587 49.5359 29.6542C49.6904 29.7728 49.8507 29.8823 50.017 29.9766C52.2619 31.2725 55.5521 30.3569 58.1 27.8169C58.4949 27.4214 58.8691 26.9895 59.2224 26.521C59.659 25.9369 60.0301 25.3346 60.339 24.7232C62.0108 21.4136 61.8118 17.8454 59.656 16.1632C58.5484 15.2992 57.1082 15.0741 55.6026 15.3966C54.7741 15.573 53.9278 15.9168 53.1083 16.4126C52.844 16.5708 52.5827 16.7442 52.3273 16.9358ZM33.5808 17.6935C33.6343 15.5732 34.2014 13.6446 35.0953 12.1754C36.188 10.3806 37.7678 9.26725 39.502 9.31288C40.4789 9.33722 41.3906 9.72963 42.1775 10.3958C43.0268 11.1137 43.7335 12.1541 44.2264 13.4073C44.3155 13.6355 44.4016 13.8728 44.4759 14.1161C44.8411 15.2842 45.0312 16.6014 44.9955 17.9885C44.8827 22.4997 42.4418 26.1349 39.4663 26.3569C39.3357 26.3661 39.205 26.3691 39.0744 26.3661C36.2296 26.293 33.949 23.1233 33.6164 19.0441C33.5808 18.6091 33.5689 18.1558 33.5808 17.6935ZM22.2997 25.7309C22.6264 26.2146 22.9887 26.6496 23.3747 27.0298C25.2247 28.8611 27.6181 29.4695 29.2068 28.347C30.9796 27.0998 31.134 24.14 29.6611 21.4904C29.5394 21.2684 29.4028 21.0463 29.2573 20.8303C27.823 18.7101 25.6998 17.5237 23.9181 17.6637C23.3509 17.7063 22.8164 17.8857 22.3502 18.2143C20.72 19.3641 20.4557 21.9619 21.5722 24.432C21.7712 24.8731 22.0117 25.3081 22.2997 25.7309ZM52.6598 45.2206C52.6687 46.4525 52.3956 47.6176 51.9086 48.6458C50.7683 51.0459 48.4461 52.6946 45.7558 52.7129C45.15 52.7159 44.5591 52.6368 43.9978 52.4847C42.5071 52.0802 41.2332 51.195 40.2978 49.9478L40.2857 49.9294C40.1559 49.731 39.0595 48.0544 37.6966 47.6054C36.2895 47.1154 34.2558 47.576 33.9684 47.6411L33.9684 47.6411C33.9525 47.6447 33.942 47.6471 33.9372 47.648H33.9342C33.5303 47.7241 33.1176 47.7636 32.6959 47.7667C28.7584 47.794 25.5424 44.603 25.5157 40.6333C25.5127 40.104 25.5662 39.5869 25.6701 39.088C26.9113 34.595 30.9588 32.6391 33.6373 31.6748C35.5882 30.9721 37.5481 30.7196 39.3001 30.8321C40.1256 30.8869 40.9066 31.0207 41.6252 31.2367H41.6282C42.1241 31.3401 42.6229 31.474 43.1218 31.6443C44.4343 32.0854 45.6221 32.7121 46.6585 33.4725C47.7631 34.2817 48.6926 35.243 49.4142 36.2955C50.4683 37.6218 51.3592 39.2827 51.9561 41.1778C52.3599 42.4646 52.5975 43.7452 52.6717 44.9681C52.6698 44.9641 52.6666 44.9615 52.6631 44.9585L52.663 44.9584C52.6611 44.9568 52.659 44.955 52.6569 44.9529C52.6569 44.9702 52.657 44.9874 52.6572 45.0046C52.6574 45.0329 52.6579 45.061 52.6584 45.089C52.6591 45.1331 52.6598 45.1768 52.6598 45.2206ZM63.0145 40.0919C63.9172 39.7938 64.7308 39.3679 65.4168 38.863C67.2163 37.5367 68.1547 35.6476 67.6261 33.9928C67.4954 33.5852 67.2846 33.2171 67.0055 32.8947C65.7345 31.4254 63.0709 30.9265 60.3835 31.8148C60.3449 31.8269 60.3093 31.8391 60.2737 31.8513L60.2736 31.8513C57.0636 32.9555 55.0503 35.6507 55.7689 37.9109C56.3598 39.7725 58.6166 40.7642 61.2001 40.4874C61.794 40.4235 62.4027 40.2927 63.0145 40.0919Z" fill="#2AA41C"/>
<path d="M0 82.6116V68.8635H5.02283C6.08828 68.8635 7.10299 68.9735 8.06696 69.1936C9.04363 69.4007 9.89979 69.7697 10.6355 70.3004C11.3838 70.8182 11.9799 71.5108 12.4239 72.3782C12.8678 73.2455 13.0898 74.3394 13.0898 75.6599C13.0898 76.8638 12.8742 77.9059 12.4429 78.7862C12.0243 79.6665 11.4599 80.3915 10.7496 80.9611C10.0393 81.5177 9.2212 81.932 8.29527 82.2038C7.36935 82.4757 6.40537 82.6116 5.40334 82.6116H0ZM4.35692 72.786V78.6503H5.19406C6.25951 78.6503 7.07762 78.4173 7.64839 77.9512C8.21917 77.4722 8.50456 76.6955 8.50456 75.621C8.50456 74.7278 8.21917 74.0352 7.64839 73.5433C7.07762 73.0384 6.31659 72.786 5.36529 72.786H4.35692Z" fill="#2AA41C"/>
<path d="M14.3852 75.6599C14.3852 74.5595 14.5754 73.5692 14.956 72.6889C15.3365 71.7956 15.8565 71.0383 16.5161 70.4169C17.1883 69.7955 17.9811 69.3166 18.8943 68.98C19.8076 68.6434 20.7969 68.4751 21.8623 68.4751C22.9278 68.4751 23.9171 68.6434 24.8304 68.98C25.7436 69.3166 26.5364 69.7955 27.2086 70.4169C27.8809 71.0383 28.4072 71.7956 28.7878 72.6889C29.1683 73.5692 29.3585 74.5595 29.3585 75.6599C29.3585 76.7602 29.1683 77.7635 28.7878 78.6697C28.4072 79.5759 27.8809 80.3526 27.2086 80.9999C26.5364 81.6342 25.7436 82.1262 24.8304 82.4757C23.9171 82.8252 22.9278 83 21.8623 83C20.7969 83 19.8076 82.8252 18.8943 82.4757C17.9811 82.1262 17.1883 81.6342 16.5161 80.9999C15.8565 80.3526 15.3365 79.5759 14.956 78.6697C14.5754 77.7635 14.3852 76.7602 14.3852 75.6599ZM19.1987 75.6599C19.1987 76.113 19.2621 76.5272 19.389 76.9026C19.5285 77.2781 19.7124 77.6017 19.9407 77.8736C20.1817 78.1454 20.4671 78.359 20.7969 78.5144C21.1267 78.6568 21.4818 78.728 21.8623 78.728C22.2429 78.728 22.5917 78.6568 22.9088 78.5144C23.2385 78.359 23.5239 78.1454 23.7649 77.8736C24.0059 77.6017 24.1898 77.2781 24.3167 76.9026C24.4562 76.5272 24.526 76.113 24.526 75.6599C24.526 75.2197 24.4562 74.8184 24.3167 74.4559C24.1898 74.0805 24.0059 73.7698 23.7649 73.5239C23.5239 73.2649 23.2385 73.0643 22.9088 72.9219C22.5917 72.7795 22.2429 72.7083 21.8623 72.7083C21.4818 72.7083 21.1267 72.7795 20.7969 72.9219C20.4671 73.0643 20.1817 73.2649 19.9407 73.5239C19.7124 73.7698 19.5285 74.0805 19.389 74.4559C19.2621 74.8184 19.1987 75.2197 19.1987 75.6599Z" fill="#2AA41C"/>
<path d="M35.2845 74.8443L35.4938 82.6116H31.27V68.8635H37.1871L39.6224 76.2618H39.7175L41.8294 68.8635H47.9367V82.6116H43.5417L43.6749 74.8831L43.5607 74.8637L41.0493 82.6116H37.853L35.3796 74.8443H35.2845Z" fill="#2AA41C"/>
<path d="M48.8844 68.8635H54.0024L56.2284 77.3687H56.3045L58.4354 68.8635H63.5533L58.6827 82.6116H53.6599L48.8844 68.8635Z" fill="#2AA41C"/>
<path d="M64.5095 68.8635H73.7751V72.7083H68.7713V73.8928H73.4707V77.4852H68.7713V78.7668H74.0986V82.6116H64.5095V68.8635Z" fill="#2AA41C"/>
<path d="M82.6895 82.6116H78.1613V72.7665H74.8508V68.8635H86V72.7665H82.6895V82.6116Z" fill="#2AA41C"/>
</svg>
