<svg width="47" height="47" fill="none" xmlns="http://www.w3.org/2000/svg"><path fill-rule="evenodd" clip-rule="evenodd" d="M43 23.5C43 34.27 34.27 43 23.5 43S4 34.27 4 23.5 12.73 4 23.5 4 43 12.73 43 23.5zm4 0C47 36.479 36.479 47 23.5 47S0 36.479 0 23.5 10.521 0 23.5 0 47 10.521 47 23.5zM31.936 34H16.704v-3.712l7.52-7.808c1.312-1.344 2.272-2.656 2.272-3.968 0-1.408-.896-2.368-2.4-2.368-1.568 0-2.688 1.024-3.296 2.432l-4.32-2.528c1.44-3.328 4.448-4.896 7.552-4.896 4 0 7.584 2.624 7.584 7.136 0 2.688-1.44 4.992-3.488 7.04l-3.712 3.744h7.52V34z" fill="#2AA41C"/><path fill-rule="evenodd" clip-rule="evenodd" d="M43 23.5C43 34.27 34.27 43 23.5 43S4 34.27 4 23.5 12.73 4 23.5 4 43 12.73 43 23.5zm4 0C47 36.479 36.479 47 23.5 47S0 36.479 0 23.5 10.521 0 23.5 0 47 10.521 47 23.5zM31.936 34H16.704v-3.712l7.52-7.808c1.312-1.344 2.272-2.656 2.272-3.968 0-1.408-.896-2.368-2.4-2.368-1.568 0-2.688 1.024-3.296 2.432l-4.32-2.528c1.44-3.328 4.448-4.896 7.552-4.896 4 0 7.584 2.624 7.584 7.136 0 2.688-1.44 4.992-3.488 7.04l-3.712 3.744h7.52V34z" fill="url(#paint0_linear)"/><defs><linearGradient id="paint0_linear" x1="24.498" y1="47" x2="17.688" y2="-10.976" gradientUnits="userSpaceOnUse"><stop stop-color="#2AA41C"/><stop offset="1" stop-color="#1AD205"/></linearGradient></defs></svg>