<svg width="47" height="47" fill="none" xmlns="http://www.w3.org/2000/svg"><path fill-rule="evenodd" clip-rule="evenodd" d="M43 23.5C43 34.27 34.27 43 23.5 43S4 34.27 4 23.5 12.73 4 23.5 4 43 12.73 43 23.5zm4 0C47 36.479 36.479 47 23.5 47S0 36.479 0 23.5 10.521 0 23.5 0 47 10.521 47 23.5zm-16.256-6.74l-3.872 4.928c2.752.96 4.768 3.168 4.768 6.272 0 4.928-3.84 7.488-8.16 7.488-3.392 0-6.464-1.504-7.84-4.8l4.416-2.56c.512 1.472 1.472 2.368 3.424 2.368 2.112 0 3.04-1.12 3.04-2.496s-.928-2.496-3.04-2.496h-1.056l-1.952-2.912 4.064-5.152h-8.192v-4.8h14.4v4.16z" fill="#2AA41C"/><path fill-rule="evenodd" clip-rule="evenodd" d="M43 23.5C43 34.27 34.27 43 23.5 43S4 34.27 4 23.5 12.73 4 23.5 4 43 12.73 43 23.5zm4 0C47 36.479 36.479 47 23.5 47S0 36.479 0 23.5 10.521 0 23.5 0 47 10.521 47 23.5zm-16.256-6.74l-3.872 4.928c2.752.96 4.768 3.168 4.768 6.272 0 4.928-3.84 7.488-8.16 7.488-3.392 0-6.464-1.504-7.84-4.8l4.416-2.56c.512 1.472 1.472 2.368 3.424 2.368 2.112 0 3.04-1.12 3.04-2.496s-.928-2.496-3.04-2.496h-1.056l-1.952-2.912 4.064-5.152h-8.192v-4.8h14.4v4.16z" fill="url(#paint0_linear)"/><defs><linearGradient id="paint0_linear" x1="24.498" y1="47" x2="17.688" y2="-10.976" gradientUnits="userSpaceOnUse"><stop stop-color="#2AA41C"/><stop offset="1" stop-color="#1AD205"/></linearGradient></defs></svg>