<?xml version="1.0" standalone="no"?>
<!DOCTYPE svg PUBLIC "-//W3C//DTD SVG 20010904//EN"
 "http://www.w3.org/TR/2001/REC-SVG-20010904/DTD/svg10.dtd">
<svg version="1.0" xmlns="http://www.w3.org/2000/svg"
 width="422.000000pt" height="422.000000pt" viewBox="0 0 422.000000 422.000000"
 preserveAspectRatio="xMidYMid meet">
<metadata>
Created by potrace 1.11, written by Peter Selinger 2001-2013
</metadata>
<g transform="translate(0.000000,422.000000) scale(0.100000,-0.100000)"
fill="#000000" stroke="none">
<path d="M2548 4085 c-2 -1 -32 -5 -68 -8 -36 -3 -74 -8 -85 -11 -11 -2 -33
-7 -50 -11 -43 -10 -155 -45 -190 -60 -16 -7 -84 -34 -150 -60 -103 -40 -213
-85 -340 -140 -30 -13 -199 -88 -285 -127 -25 -11 -115 -54 -200 -96 -85 -42
-157 -76 -160 -76 -3 -1 -10 -4 -16 -8 -5 -4 -50 -28 -100 -54 -463 -242 -756
-453 -851 -614 -45 -76 -60 -193 -38 -295 26 -122 145 -264 281 -334 52 -27
83 -56 88 -84 3 -12 7 -110 10 -217 3 -107 8 -215 10 -240 9 -94 17 -169 21
-188 2 -11 7 -42 11 -69 10 -69 9 -67 43 -209 17 -71 36 -138 40 -149 5 -11
17 -42 27 -69 33 -91 112 -193 190 -244 51 -34 248 -122 438 -197 247 -97 518
-195 538 -195 8 0 18 -4 24 -9 10 -10 279 -96 409 -131 44 -12 98 -28 120 -35
56 -17 183 -16 252 2 71 18 213 88 296 145 34 24 64 45 67 48 3 3 32 27 65 54
115 92 357 340 458 469 112 144 116 147 178 141 19 -2 57 -6 84 -8 28 -3 52
-6 55 -7 7 -2 81 2 110 5 175 22 308 125 368 284 36 93 20 259 -45 482 -23 80
-74 231 -93 275 -4 11 -24 61 -44 111 -70 181 -165 388 -317 689 -120 239
-156 306 -272 515 -149 269 -220 377 -317 483 -111 121 -250 202 -385 226 -66
11 -171 21 -177 16z m-564 -689 c112 -47 230 -238 252 -411 12 -90 2 -262 -17
-297 -5 -10 -7 -18 -4 -18 12 0 -47 -135 -82 -188 -79 -118 -170 -176 -282
-176 -61 -1 -116 14 -150 39 -8 5 -38 33 -67 62 -145 142 -198 417 -127 663
46 162 150 290 272 335 45 17 155 12 205 -9z m1117 -381 c103 -22 193 -111
214 -211 14 -65 12 -163 -5 -230 -18 -70 -68 -186 -82 -192 -4 -2 -8 -8 -8
-14 0 -12 -50 -77 -105 -136 -75 -82 -214 -167 -309 -190 -64 -15 -188 -7
-237 16 -232 107 -213 494 38 755 150 157 341 235 494 202z m-2126 -140 c132
-64 254 -228 280 -375 11 -65 12 -73 3 -127 -51 -323 -463 -247 -614 112 -25
61 -29 82 -29 165 0 72 4 104 19 135 24 51 80 101 130 118 53 18 142 6 211
-28z m975 -840 c83 -11 198 -44 252 -71 194 -97 375 -295 468 -512 124 -289
90 -568 -89 -731 -41 -37 -126 -90 -157 -97 -165 -39 -308 11 -484 170 -41 37
-106 88 -145 114 l-70 46 -207 2 c-159 2 -221 6 -265 19 -206 60 -303 191
-301 408 1 115 23 188 88 292 22 36 78 103 105 127 68 60 100 83 169 121 90
50 233 102 317 115 58 9 245 8 319 -3z m1531 -39 c103 -10 201 -69 236 -144
24 -51 21 -137 -7 -196 -42 -88 -158 -181 -275 -222 -134 -47 -298 -34 -390
30 -67 46 -96 99 -98 175 -3 163 164 316 388 355 39 7 75 11 80 10 6 -1 35 -5
66 -8z"/>
</g>
</svg>
